<svg xmlns="http://www.w3.org/2000/svg" xmlns:xlink="http://www.w3.org/1999/xlink" width="500" zoomAndPan="magnify" viewBox="0 0 375 374.999991" height="500" preserveAspectRatio="xMidYMid meet" version="1.0"><defs><g/><clipPath id="07954ec780"><path d="M 85.265625 116 L 150 116 L 150 192 L 85.265625 192 Z M 85.265625 116 " clip-rule="nonzero"/></clipPath><clipPath id="aefb7c4241"><path d="M 152.597656 112.703125 L 222.46875 112.703125 L 222.46875 207.136719 L 152.597656 207.136719 Z M 152.597656 112.703125 " clip-rule="nonzero"/></clipPath></defs><g clip-path="url(#07954ec780)"><path fill="#211d1d" d="M 88.222656 149 L 141.78125 116.839844 C 142.589844 116.390625 143.484375 116.167969 144.472656 116.167969 C 145.953125 116.167969 147.21875 116.695312 148.273438 117.746094 C 149.328125 118.800781 149.855469 120.070312 149.855469 121.550781 C 149.855469 123.476562 148.9375 125.046875 147.097656 126.257812 L 101.074219 153.84375 L 147.097656 181.429688 C 148.9375 182.640625 149.855469 184.210938 149.855469 186.140625 C 149.855469 187.621094 149.328125 188.886719 148.273438 189.941406 C 147.21875 190.996094 145.953125 191.523438 144.472656 191.523438 C 143.484375 191.523438 142.589844 191.296875 141.78125 190.851562 L 88.222656 158.6875 C 86.25 157.433594 85.265625 155.816406 85.265625 153.84375 C 85.265625 151.871094 86.25 150.257812 88.222656 149 " fill-opacity="1" fill-rule="nonzero"/></g><path fill="#211d1d" d="M 289.804688 153.84375 C 289.804688 155.816406 288.816406 157.433594 286.84375 158.6875 L 233.285156 190.851562 C 232.476562 191.296875 231.582031 191.523438 230.59375 191.523438 C 229.113281 191.523438 227.847656 190.996094 226.792969 189.941406 C 225.738281 188.886719 225.210938 187.621094 225.210938 186.140625 C 225.210938 184.210938 226.132812 182.640625 227.96875 181.429688 L 273.992188 153.84375 L 227.96875 126.257812 C 226.132812 125.046875 225.210938 123.476562 225.210938 121.550781 C 225.210938 120.070312 225.738281 118.800781 226.792969 117.746094 C 227.847656 116.695312 229.113281 116.167969 230.59375 116.167969 C 231.582031 116.167969 232.476562 116.390625 233.285156 116.839844 L 286.84375 149 C 288.816406 150.257812 289.804688 151.871094 289.804688 153.84375 " fill-opacity="1" fill-rule="nonzero"/><g clip-path="url(#aefb7c4241)"><path fill="#0cc0df" d="M 213.871094 151.503906 C 207.757812 162.105469 194.199219 165.738281 183.59375 159.613281 C 172.988281 153.492188 169.359375 139.9375 175.480469 129.332031 C 181.605469 118.730469 195.160156 115.101562 205.757812 121.21875 C 216.363281 127.339844 219.996094 140.898438 213.871094 151.503906 Z M 208.53125 116.417969 C 208.519531 116.414062 208.515625 116.414062 208.503906 116.402344 C 195.253906 108.773438 178.328125 113.324219 170.679688 126.558594 C 163.519531 138.972656 167.046875 154.605469 178.386719 162.832031 L 173.265625 171.699219 L 171.324219 170.578125 C 170.933594 170.347656 170.425781 170.484375 170.207031 170.878906 L 152.789062 201.050781 C 152.558594 201.441406 152.695312 201.949219 153.082031 202.171875 L 161.996094 207.320312 C 162.382812 207.542969 162.890625 207.40625 163.121094 207.015625 L 180.535156 176.84375 C 180.757812 176.449219 180.625 175.945312 180.234375 175.714844 L 178.292969 174.59375 L 182.164062 167.890625 L 183.40625 165.730469 C 196.207031 171.441406 211.515625 166.675781 218.671875 154.273438 C 226.324219 141.019531 221.785156 124.078125 208.53125 116.417969 " fill-opacity="1" fill-rule="nonzero"/></g><path fill="#0cc0df" d="M 199.296875 121.441406 C 189.042969 123.367188 180.542969 129.828125 175.769531 138.542969 C 176.789062 129.289062 184.285156 121.789062 193.90625 121.089844 C 195.757812 120.953125 197.566406 121.085938 199.296875 121.441406 " fill-opacity="1" fill-rule="nonzero"/><g fill="#211d1d" fill-opacity="1"><g transform="translate(112.269086, 236.556092)"><g><path d="M 5.484375 -7.3125 L 5.484375 0 L 1.328125 0 L 1.328125 -18.234375 L 5.484375 -18.234375 L 5.484375 -10.953125 L 11.359375 -10.953125 L 11.359375 -18.234375 L 15.515625 -18.234375 L 15.515625 0 L 11.359375 0 L 11.359375 -7.3125 Z M 5.484375 -7.3125 "/></g></g></g><g fill="#211d1d" fill-opacity="1"><g transform="translate(131.964613, 236.556092)"><g><path d="M 16.390625 0 L 15.53125 -10.796875 L 15.421875 -10.796875 L 11.6875 -0.109375 L 9.21875 -0.109375 L 5.484375 -10.796875 L 5.375 -10.796875 L 4.5 0 L 0.359375 0 L 1.984375 -18.234375 L 6.40625 -18.234375 L 10.453125 -7.703125 L 14.5 -18.234375 L 18.90625 -18.234375 L 20.546875 0 Z M 16.390625 0 "/></g></g></g><g fill="#211d1d" fill-opacity="1"><g transform="translate(155.722517, 236.556092)"><g><path d="M 8.046875 -18.5625 C 9.023438 -18.5625 9.984375 -18.414062 10.921875 -18.125 C 11.867188 -17.84375 12.570312 -17.5625 13.03125 -17.28125 L 13.703125 -16.828125 L 12.015625 -13.515625 C 11.878906 -13.609375 11.691406 -13.722656 11.453125 -13.859375 C 11.222656 -14.003906 10.785156 -14.191406 10.140625 -14.421875 C 9.492188 -14.660156 8.890625 -14.78125 8.328125 -14.78125 C 7.640625 -14.78125 7.109375 -14.628906 6.734375 -14.328125 C 6.359375 -14.035156 6.171875 -13.640625 6.171875 -13.140625 C 6.171875 -12.890625 6.253906 -12.65625 6.421875 -12.4375 C 6.597656 -12.226562 6.898438 -12.003906 7.328125 -11.765625 C 7.753906 -11.523438 8.128906 -11.328125 8.453125 -11.171875 C 8.785156 -11.023438 9.289062 -10.804688 9.96875 -10.515625 C 11.144531 -10.015625 12.148438 -9.332031 12.984375 -8.46875 C 13.816406 -7.613281 14.234375 -6.640625 14.234375 -5.546875 C 14.234375 -4.503906 14.046875 -3.59375 13.671875 -2.8125 C 13.296875 -2.03125 12.78125 -1.414062 12.125 -0.96875 C 11.46875 -0.53125 10.738281 -0.207031 9.9375 0 C 9.144531 0.21875 8.285156 0.328125 7.359375 0.328125 C 6.566406 0.328125 5.785156 0.242188 5.015625 0.078125 C 4.242188 -0.078125 3.597656 -0.273438 3.078125 -0.515625 C 2.566406 -0.765625 2.101562 -1.003906 1.6875 -1.234375 C 1.28125 -1.472656 0.984375 -1.671875 0.796875 -1.828125 L 0.515625 -2.078125 L 2.578125 -5.5625 C 2.753906 -5.414062 3 -5.226562 3.3125 -5 C 3.625 -4.769531 4.171875 -4.460938 4.953125 -4.078125 C 5.742188 -3.703125 6.441406 -3.515625 7.046875 -3.515625 C 8.796875 -3.515625 9.671875 -4.109375 9.671875 -5.296875 C 9.671875 -5.546875 9.609375 -5.773438 9.484375 -5.984375 C 9.359375 -6.203125 9.132812 -6.414062 8.8125 -6.625 C 8.5 -6.84375 8.222656 -7.015625 7.984375 -7.140625 C 7.742188 -7.265625 7.347656 -7.457031 6.796875 -7.71875 C 6.242188 -7.976562 5.832031 -8.175781 5.5625 -8.3125 C 4.457031 -8.851562 3.601562 -9.53125 3 -10.34375 C 2.394531 -11.164062 2.09375 -12.046875 2.09375 -12.984375 C 2.09375 -14.617188 2.695312 -15.957031 3.90625 -17 C 5.113281 -18.039062 6.492188 -18.5625 8.046875 -18.5625 Z M 8.046875 -18.5625 "/></g></g></g><g fill="#0cc0df" fill-opacity="1"><g transform="translate(173.440957, 236.556092)"><g><path d="M 16.390625 0 L 15.53125 -10.796875 L 15.421875 -10.796875 L 11.6875 -0.109375 L 9.21875 -0.109375 L 5.484375 -10.796875 L 5.375 -10.796875 L 4.5 0 L 0.359375 0 L 1.984375 -18.234375 L 6.40625 -18.234375 L 10.453125 -7.703125 L 14.5 -18.234375 L 18.90625 -18.234375 L 20.546875 0 Z M 16.390625 0 "/></g></g></g><g fill="#0cc0df" fill-opacity="1"><g transform="translate(197.198862, 236.556092)"><g><path d="M 5.484375 -18.234375 L 5.484375 0 L 1.328125 0 L 1.328125 -18.234375 Z M 5.484375 -18.234375 "/></g></g></g><g fill="#0cc0df" fill-opacity="1"><g transform="translate(206.870898, 236.556092)"><g><path d="M 1.328125 -18.234375 L 7.84375 -18.234375 C 9.59375 -18.234375 11.019531 -17.765625 12.125 -16.828125 C 13.226562 -15.890625 13.78125 -14.550781 13.78125 -12.8125 C 13.78125 -11.46875 13.445312 -10.34375 12.78125 -9.4375 C 12.113281 -8.539062 11.203125 -7.90625 10.046875 -7.53125 L 16.328125 0 L 11.046875 0 L 5.484375 -7.203125 L 5.484375 0 L 1.328125 0 Z M 5.484375 -10.140625 L 5.96875 -10.140625 C 6.351562 -10.140625 6.675781 -10.144531 6.9375 -10.15625 C 7.195312 -10.175781 7.492188 -10.226562 7.828125 -10.3125 C 8.171875 -10.40625 8.445312 -10.53125 8.65625 -10.6875 C 8.863281 -10.851562 9.039062 -11.085938 9.1875 -11.390625 C 9.332031 -11.703125 9.40625 -12.078125 9.40625 -12.515625 C 9.40625 -12.960938 9.332031 -13.34375 9.1875 -13.65625 C 9.039062 -13.96875 8.863281 -14.203125 8.65625 -14.359375 C 8.445312 -14.523438 8.171875 -14.648438 7.828125 -14.734375 C 7.492188 -14.828125 7.195312 -14.878906 6.9375 -14.890625 C 6.675781 -14.898438 6.351562 -14.90625 5.96875 -14.90625 L 5.484375 -14.90625 Z M 5.484375 -10.140625 "/></g></g></g><g fill="#0cc0df" fill-opacity="1"><g transform="translate(225.55083, 236.556092)"><g><path d="M 10.578125 -18.234375 L 17.9375 0 L 13.484375 0 L 12.125 -3.640625 L 5.1875 -3.640625 L 3.84375 0 L -0.625 0 L 6.734375 -18.234375 Z M 10.71875 -7.296875 L 8.6875 -12.59375 L 8.640625 -12.59375 L 6.609375 -7.296875 Z M 10.71875 -7.296875 "/></g></g></g><g fill="#0cc0df" fill-opacity="1"><g transform="translate(245.732079, 236.556092)"><g><path d="M 16.640625 -18.234375 L 7.59375 -3.640625 L 16.046875 -3.640625 L 16.046875 0 L 0.359375 0 L 9.375 -14.578125 L 1.640625 -14.578125 L 1.640625 -18.234375 Z M 16.640625 -18.234375 "/></g></g></g></svg>